# This file uses centimeters as units for non-parametric coordinates.
mtllib Enemy (broken node).mtl
g default
zn Texturer/EnemyTex.png
zg Glow/EnemyTexGlow.png
v -0.528316 6.896914 0.140402
v 0.182004 5.504544 0.049856
v 1.003275 5.250084 -0.040691
v -0.620441 7.817425 0.503422
v 0.474037 7.526814 1.052497
v 1.568516 7.236203 0.322329
v -0.345989 8.737937 0.866442
v 0.748489 8.525570 1.731420
v 1.842967 8.156714 0.685349
v -0.071538 9.658448 0.871934
v 1.022940 9.367837 1.138916
v 1.786588 8.665494 0.869544
v -0.811915 11.046946 0.210811
v 1.043692 10.418381 0.120265
v 2.138170 9.472762 0.029718
v -0.791164 11.442482 -0.807840
v 0.303315 11.151871 -0.898386
v 1.815289 9.573490 -0.988933
v -1.065615 10.521971 -1.170860
v 0.789992 9.238398 -1.261406
v 1.540837 8.652978 -1.351953
v -0.578938 8.608498 -1.533880
v 0.515540 8.317887 -1.624427
v 1.610019 8.027275 -1.714973
v -0.626527 7.687987 -1.629638
v 0.241089 7.397375 -1.987447
v 1.335567 7.106764 -1.697728
v -0.874141 7.292450 -0.878249
v 0.220337 6.340569 -0.968796
v 1.297234 5.609469 -1.059342
v 1.589267 7.631739 -0.696322
v 2.073382 8.552251 -0.333302
v -0.599689 8.212962 -0.515229
v -1.000480 9.133473 -0.152209
vt 0.126293 0.107073
vt 0.223645 0.005766
vt 0.194294 0.214390
vt 0.093478 0.193380
vt 0.303881 0.001992
vt 0.304584 0.193380
vt 0.190094 0.326695
vt 0.093478 0.288791
vt 0.304584 0.288791
vt 0.199031 0.384202
vt 0.096125 0.372458
vt 0.286079 0.335819
vt 0.183462 0.438759
vt 0.001742 0.448006
vt 0.033032 0.272023
vt 0.152127 0.557049
vt 0.153184 0.470000
vt 0.253678 0.451496
vt 0.275703 0.572618
vt 0.344709 0.475250
vt 0.387275 0.648785
vt 0.285724 0.754338
vt 0.387275 0.754338
vt 0.310345 0.001992
vt 0.415898 0.001992
vt 0.507634 0.161207
vt 0.310345 0.097403
vt 0.589433 0.098885
vt 0.589433 0.194296
vt 0.507634 0.256618
vt 0.402081 0.256618
vt 0.613186 0.256618
vt 0.507634 0.352029
vt 0.420409 0.337616
vt 0.610370 0.339538
vt 0.637800 0.444232
vt 0.523351 0.407107
vt 0.020071 0.780572
vt 0.107295 0.757828
vt 0.123012 0.881614
vt 0.001742 0.859379
vt 0.131909 0.998008
vt 0.034557 0.960283
vt 0.237461 0.896457
vt 0.212145 0.997274
vt 0.733969 0.451496
vt 0.839668 0.556191
vt 0.872598 0.639111
vt 0.771047 0.639111
vt 0.862079 0.701433
vt 0.771417 0.739728
vt 0.633152 0.447722
vt 0.669497 0.639111
vt 0.862079 0.796844
vt 0.771047 0.829933
vt 0.669497 0.734522
vt 0.670554 0.781549
vt 0.447430 0.462135
vt 0.526236 0.447722
vt 0.526236 0.543133
vt 0.424686 0.543133
vt 0.627141 0.456826
vt 0.627787 0.543133
vt 0.527428 0.621776
vt 0.392639 0.702348
vt 0.627787 0.638544
vt 0.494190 0.797759
vt 0.392639 0.797759
vn -0.007357 -0.337782 0.941196
vn -0.010304 -0.468283 0.883518
vn -0.514675 -0.328036 0.792150
vn -0.488776 -0.279114 0.826555
vn 0.048291 -0.192873 0.980035
vn 0.374612 -0.423705 0.824706
vn -0.497686 0.003897 0.867349
vn -0.064685 -0.068439 0.995556
vn 0.483403 -0.454074 0.748424
vn 0.016588 0.460792 0.887353
vn -0.221437 0.060215 0.973314
vn 0.635396 0.036907 0.771304
vn 0.369067 0.616746 0.695279
vn 0.502751 0.750334 0.429233
vn 0.143029 0.581945 0.800551
vn 0.272438 0.750330 0.602315
vn 0.619903 0.419737 0.662979
vn 0.654038 0.673971 0.343506
vn 0.452414 0.850701 0.267637
vn 0.267272 0.896430 0.353523
vn 0.684014 0.725421 -0.076739
vn 0.018987 0.361899 -0.932024
vn 0.102513 0.234739 -0.966638
vn 0.085435 0.233329 -0.968637
vn 0.121972 0.248279 -0.960979
vn 0.170708 0.252186 -0.952502
vn 0.116592 0.387009 -0.914675
vn 0.053758 0.208273 -0.976592
vn 0.035804 0.294619 -0.954944
vn -0.030416 0.191130 -0.981093
vn -0.134597 0.251966 -0.958330
vn 0.074716 0.346487 -0.935075
vn 0.113776 0.136595 -0.984071
vn -0.457360 -0.715887 -0.527567
vn -0.298459 -0.670619 -0.679112
vn -0.609659 -0.692390 -0.385891
vn -0.535056 -0.591775 -0.602924
vn -0.151640 -0.556467 -0.816915
vn -0.401266 -0.562005 -0.723281
vn -0.767034 -0.604726 -0.214396
vn -0.647251 -0.606012 -0.462402
vn -0.311351 -0.864398 -0.394812
vn 0.973606 -0.223772 0.044921
vn 0.974134 -0.152269 -0.166965
vn 0.971817 -0.202243 -0.121121
vn 0.993737 -0.109498 -0.022274
vn 0.940024 -0.297899 0.166169
vn 0.977895 -0.209033 -0.005092
vn 0.932803 -0.101969 -0.345659
vn 0.961337 -0.227770 -0.154764
vn 0.967652 -0.245431 0.058417
vn 0.917835 -0.022478 -0.396324
vn 0.997853 -0.059089 -0.028254
vn 0.967475 -0.084072 0.238589
vn -0.961309 0.222641 0.162221
vn -0.992293 -0.103385 0.068304
vn -0.981116 0.183015 -0.062587
vn -0.975717 -0.162672 -0.146677
vn -0.986755 0.026236 0.160083
vn -0.995558 0.092823 0.015762
vn -0.962833 -0.163429 0.215043
vn -0.999822 0.003072 0.018623
vn -0.905309 0.037730 0.423074
vn -0.931485 0.052713 0.359940
vn -0.963434 0.255816 0.079705
vn -0.745822 0.020823 0.665820
s 1
g pCube1
usemtl lambert6SG
f 2/2/1 5/3/2 1/1/3
f 1/1/3 5/3/2 4/4/4
f 3/5/5 6/6/6 2/2/1
f 2/2/1 6/6/6 5/3/2
f 4/4/4 5/3/2 7/8/7
f 7/8/7 5/3/2 8/7/8
f 6/6/6 9/9/9 5/3/2
f 5/3/2 9/9/9 8/7/8
f 8/7/8 11/10/10 7/8/7
f 7/8/7 11/10/10 10/11/11
f 9/9/9 12/12/12 8/7/8
f 8/7/8 12/12/12 11/10/10
s 2
f 11/10/13 14/13/14 10/11/15
f 10/11/15 14/13/14 13/14/16
f 12/17/17 15/18/18 11/16/13
f 11/16/13 15/18/18 14/19/14
f 14/19/14 17/21/19 13/22/16
f 13/22/16 17/21/19 16/23/20
f 15/18/18 18/20/21 14/19/14
f 14/19/14 18/20/21 17/21/19
s 3
f 16/24/22 17/25/23 19/27/24
f 19/27/24 17/25/23 20/26/25
f 17/25/23 18/28/26 20/26/25
f 20/26/25 18/28/26 21/29/27
f 19/27/24 20/26/25 22/31/28
f 22/31/28 20/26/25 23/30/29
f 20/26/25 21/29/27 23/30/29
f 23/30/29 21/29/27 24/32/30
f 22/31/28 23/30/29 25/34/31
f 25/34/31 23/30/29 26/33/32
f 24/32/30 27/35/33 23/30/29
f 23/30/29 27/35/33 26/33/32
s 4
f 25/38/34 26/39/35 28/41/36
f 28/41/36 26/39/35 29/40/37
f 26/33/35 27/35/38 29/37/37
f 29/37/37 27/35/38 30/36/39
f 28/41/36 29/40/37 1/43/40
f 1/43/40 29/40/37 2/42/41
f 29/40/37 30/44/39 2/42/41
f 2/42/41 30/44/39 3/45/42
s 5
f 30/46/43 27/47/44 31/49/45
f 31/49/45 27/47/44 24/48/46
f 3/52/47 30/46/43 6/53/48
f 6/53/48 30/46/43 31/49/45
f 24/48/46 21/50/49 31/49/45
f 31/49/45 21/50/49 32/51/50
f 6/53/48 31/49/45 9/56/51
f 9/56/51 31/49/45 32/51/50
f 21/50/49 18/54/52 32/51/50
f 32/51/50 18/54/52 15/55/53
f 9/56/51 32/51/50 12/57/54
f 12/57/54 32/51/50 15/55/53
s 6
f 28/59/55 33/60/56 25/58/57
f 25/58/57 33/60/56 22/61/58
f 28/59/55 1/62/59 33/60/56
f 33/60/56 1/62/59 4/63/60
f 33/60/56 34/64/61 22/61/58
f 22/61/58 34/64/61 19/65/62
f 4/63/60 7/66/63 33/60/56
f 33/60/56 7/66/63 34/64/61
f 34/64/61 13/67/64 19/65/62
f 19/65/62 13/67/64 16/68/65
f 7/8/63 10/11/66 34/15/61
f 34/15/61 10/11/66 13/14/64
